HIERARCHY
ROOT Hips
{
	OFFSET 0.000000 83.214638 0.000000
	CHANNELS 6 Xposition Yposition Zposition Xrotation Yrotation Zrotation
	JOINT Pelvis
	{
		OFFSET 0.000000 0.000000 0.000000
		CHANNELS 3 Xrotation Yrotation Zrotation
		JOINT LeftUpLeg
		{
			OFFSET 8.479700 -4.795502 -0.379100
			CHANNELS 3 Xrotation Yrotation Zrotation
			JOINT LeftLeg
			{
				OFFSET 0.024144 -32.555107 0.112900
				CHANNELS 3 Xrotation Yrotation Zrotation
				JOINT LeftFoot
				{
					OFFSET -0.024144 -32.638630 -3.012600
					CHANNELS 3 Xrotation Yrotation Zrotation
					JOINT LeftToeBase
					{
						OFFSET 0.970200 -13.225400 11.864200
						CHANNELS 3 Xrotation Yrotation Zrotation
						End Site
						{
							OFFSET 0.000000 12.319262 0.000000
						}
					}
					JOINT LFootTongue
					{
						OFFSET 1.142400 -1.059800 6.665200
						CHANNELS 3 Xrotation Yrotation Zrotation
						End Site
						{
							OFFSET 0.000000 12.319262 0.000000
						}
					}
				}
				JOINT LeftPantLeg
				{
					OFFSET 0.918482 -16.533964 -2.284700
					CHANNELS 3 Xrotation Yrotation Zrotation
					End Site
					{
						OFFSET 0.350399 24.744368 0.000000
					}
				}
			}
		}
		JOINT RightUpLeg
		{
			OFFSET -8.479700 -4.795502 -0.379100
			CHANNELS 3 Xrotation Yrotation Zrotation
			JOINT RightLeg
			{
				OFFSET -0.023144 -32.555092 0.112900
				CHANNELS 3 Xrotation Yrotation Zrotation
				JOINT RightFoot
				{
					OFFSET 0.023144 -32.638641 -3.012700
					CHANNELS 3 Xrotation Yrotation Zrotation
					JOINT RightToeBase
					{
						OFFSET -0.970200 -13.225400 11.864200
						CHANNELS 3 Xrotation Yrotation Zrotation
						End Site
						{
							OFFSET 0.000000 12.319244 0.000000
						}
					}
					JOINT RFootTongue
					{
						OFFSET -1.142200 -1.059800 6.665200
						CHANNELS 3 Xrotation Yrotation Zrotation
						End Site
						{
							OFFSET 0.000000 12.319243 0.000000
						}
					}
				}
				JOINT RightPantLeg
				{
					OFFSET -0.919482 -16.533978 -2.284800
					CHANNELS 3 Xrotation Yrotation Zrotation
					End Site
					{
						OFFSET -0.350400 24.744419 0.000000
					}
				}
			}
		}
	}
	JOINT Spine
	{
		OFFSET 0.000000 7.722000 1.166200
		CHANNELS 3 Xrotation Yrotation Zrotation
		JOINT Spine1
		{
			OFFSET 0.000000 12.024101 0.248800
			CHANNELS 3 Xrotation Yrotation Zrotation
			JOINT Spine2
			{
				OFFSET 0.000000 11.502998 -0.491200
				CHANNELS 3 Xrotation Yrotation Zrotation
				JOINT Neck
				{
					OFFSET 0.000000 18.430702 -3.123100
					CHANNELS 3 Xrotation Yrotation Zrotation
					JOINT Head
					{
						OFFSET 0.000000 9.051102 1.034000
						CHANNELS 3 Xrotation Yrotation Zrotation
						JOINT HairB
						{
							OFFSET 0.208400 24.786102 24.822300
							CHANNELS 3 Xrotation Yrotation Zrotation
							End Site
							{
								OFFSET 0.000000 32.263779 0.000000
							}
						}
						JOINT HairA
						{
							OFFSET -7.081100 24.428299 23.196600
							CHANNELS 3 Xrotation Yrotation Zrotation
							End Site
							{
								OFFSET 0.000000 32.263779 0.000000
							}
						}
						JOINT Hat
						{
							OFFSET 16.728800 15.048294 -15.439601
							CHANNELS 3 Xrotation Yrotation Zrotation
							End Site
							{
								OFFSET 0.000000 32.263779 0.000000
							}
						}
					}
				}
				JOINT LeftShoulder
				{
					OFFSET 6.197800 13.665199 -4.064700
					CHANNELS 3 Xrotation Yrotation Zrotation
					JOINT LeftArm
					{
						OFFSET 7.778100 -0.187103 -1.709300
						CHANNELS 3 Xrotation Yrotation Zrotation
						JOINT LeftForeArm
						{
							OFFSET 22.049376 0.000000 0.000000
							CHANNELS 3 Xrotation Yrotation Zrotation
							JOINT LeftHand
							{
								OFFSET 23.009392 0.000000 0.000000
								CHANNELS 3 Xrotation Yrotation Zrotation
								JOINT LeftHandThumb1
								{
									OFFSET 3.507191 -2.063065 3.133727
									CHANNELS 3 Xrotation Yrotation Zrotation
									JOINT LeftHandThumb2
									{
										OFFSET 3.101337 -1.790558 1.790558
										CHANNELS 3 Xrotation Yrotation Zrotation
										JOINT LeftHandThumb3
										{
											OFFSET 3.058640 -1.765907 1.765906
											CHANNELS 3 Xrotation Yrotation Zrotation
											End Site
											{
												OFFSET -0.415260 3.926476 -0.049563
											}
										}
									}
								}
								JOINT LeftHandIndex1
								{
									OFFSET 11.334419 -0.901459 3.706815
									CHANNELS 3 Xrotation Yrotation Zrotation
									JOINT LeftHandIndex2
									{
										OFFSET 3.283112 0.000000 0.000000
										CHANNELS 3 Xrotation Yrotation Zrotation
										JOINT LeftHandIndex3
										{
											OFFSET 3.323853 0.000000 0.000000
											CHANNELS 3 Xrotation Yrotation Zrotation
											End Site
											{
												OFFSET -1.135597 3.097809 0.402452
											}
										}
									}
								}
								JOINT LeftHandMiddle1
								{
									OFFSET 11.335861 0.000000 0.000000
									CHANNELS 3 Xrotation Yrotation Zrotation
									JOINT LeftHandMiddle2
									{
										OFFSET 3.410492 0.000000 0.000000
										CHANNELS 3 Xrotation Yrotation Zrotation
										JOINT LeftHandMiddle3
										{
											OFFSET 3.312172 0.000000 0.000000
											CHANNELS 3 Xrotation Yrotation Zrotation
											End Site
											{
												OFFSET -1.150200 3.080154 0.400270
											}
										}
									}
								}
								JOINT LeftHandRing1
								{
									OFFSET 11.514786 -0.013176 -3.003090
									CHANNELS 3 Xrotation Yrotation Zrotation
									JOINT LeftHandRing2
									{
										OFFSET 3.053307 0.000000 0.000000
										CHANNELS 3 Xrotation Yrotation Zrotation
										JOINT LeftHandRing3
										{
											OFFSET 3.295807 0.000000 0.000000
											CHANNELS 3 Xrotation Yrotation Zrotation
											End Site
											{
												OFFSET -1.281006 3.013344 0.375733
											}
										}
									}
								}
								JOINT LeftHandPinky1
								{
									OFFSET 10.518692 -0.960396 -5.730441
									CHANNELS 3 Xrotation Yrotation Zrotation
									JOINT LeftHandPinky2
									{
										OFFSET 2.861649 0.000000 0.000000
										CHANNELS 3 Xrotation Yrotation Zrotation
										JOINT LeftHandPinky3
										{
											OFFSET 2.863380 0.000000 0.000000
											CHANNELS 3 Xrotation Yrotation Zrotation
											End Site
											{
												OFFSET -0.843597 2.711159 0.369971
											}
										}
									}
								}
							}
							JOINT LSleeve
							{
								OFFSET 6.676277 -0.344902 -1.011730
								CHANNELS 3 Xrotation Yrotation Zrotation
								End Site
								{
									OFFSET 0.000000 14.885353 0.000000
								}
							}
						}
					}
				}
				JOINT RightShoulder
				{
					OFFSET -6.197800 13.665199 -4.064700
					CHANNELS 3 Xrotation Yrotation Zrotation
					JOINT RightArm
					{
						OFFSET -7.778100 -0.187103 -1.709300
						CHANNELS 3 Xrotation Yrotation Zrotation
						JOINT RightForeArm
						{
							OFFSET -22.049376 0.000000 0.000000
							CHANNELS 3 Xrotation Yrotation Zrotation
							JOINT RightHand
							{
								OFFSET -23.009392 0.000000 0.000000
								CHANNELS 3 Xrotation Yrotation Zrotation
								JOINT RightHandThumb1
								{
									OFFSET -3.507191 -2.063065 3.133727
									CHANNELS 3 Xrotation Yrotation Zrotation
									JOINT RightHandThumb2
									{
										OFFSET -3.101337 -1.790558 1.790558
										CHANNELS 3 Xrotation Yrotation Zrotation
										JOINT RightHandThumb3
										{
											OFFSET -3.058640 -1.765907 1.765906
											CHANNELS 3 Xrotation Yrotation Zrotation
											End Site
											{
												OFFSET 0.415260 3.926476 -0.049563
											}
										}
									}
								}
								JOINT RightHandIndex1
								{
									OFFSET -11.334419 -0.901459 3.706815
									CHANNELS 3 Xrotation Yrotation Zrotation
									JOINT RightHandIndex2
									{
										OFFSET -3.283112 0.000000 0.000000
										CHANNELS 3 Xrotation Yrotation Zrotation
										JOINT RightHandIndex3
										{
											OFFSET -3.323853 0.000000 0.000000
											CHANNELS 3 Xrotation Yrotation Zrotation
											End Site
											{
												OFFSET 1.135597 3.097809 0.402452
											}
										}
									}
								}
								JOINT RightHandMiddle1
								{
									OFFSET -11.335861 0.000000 0.000000
									CHANNELS 3 Xrotation Yrotation Zrotation
									JOINT RightHandMiddle2
									{
										OFFSET -3.410492 0.000000 0.000000
										CHANNELS 3 Xrotation Yrotation Zrotation
										JOINT RightHandMiddle3
										{
											OFFSET -3.312172 0.000000 0.000000
											CHANNELS 3 Xrotation Yrotation Zrotation
											End Site
											{
												OFFSET 1.150200 3.080154 0.400270
											}
										}
									}
								}
								JOINT RightHandRing1
								{
									OFFSET -11.514786 -0.013176 -3.003090
									CHANNELS 3 Xrotation Yrotation Zrotation
									JOINT RightHandRing2
									{
										OFFSET -3.053307 0.000000 0.000000
										CHANNELS 3 Xrotation Yrotation Zrotation
										JOINT RightHandRing3
										{
											OFFSET -3.295807 0.000000 0.000000
											CHANNELS 3 Xrotation Yrotation Zrotation
											End Site
											{
												OFFSET 1.281006 3.013344 0.375733
											}
										}
									}
								}
								JOINT RightHandPinky1
								{
									OFFSET -10.518692 -0.960396 -5.730441
									CHANNELS 3 Xrotation Yrotation Zrotation
									JOINT RightHandPinky2
									{
										OFFSET -2.861649 0.000000 0.000000
										CHANNELS 3 Xrotation Yrotation Zrotation
										JOINT RightHandPinky3
										{
											OFFSET -2.863380 0.000000 0.000000
											CHANNELS 3 Xrotation Yrotation Zrotation
											End Site
											{
												OFFSET 0.843597 2.711159 0.369971
											}
										}
									}
								}
							}
							JOINT RSleeve
							{
								OFFSET -6.676277 -0.344902 -1.011730
								CHANNELS 3 Xrotation Yrotation Zrotation
								End Site
								{
									OFFSET 0.000000 14.885353 0.000000
								}
							}
						}
					}
				}
				JOINT Backpack
				{
					OFFSET 0.000000 -2.471497 36.677502
					CHANNELS 3 Xrotation Yrotation Zrotation
					End Site
					{
						OFFSET 0.000000 20.427315 0.000000
					}
				}
				JOINT Hood
				{
					OFFSET 0.000000 18.754097 -10.431000
					CHANNELS 3 Xrotation Yrotation Zrotation
					JOINT Hood1
					{
						OFFSET 0.000000 -5.011002 -7.685901
						CHANNELS 3 Xrotation Yrotation Zrotation
						End Site
						{
							OFFSET 0.000000 9.175140 0.000000
						}
					}
				}
				JOINT LHoodieString
				{
					OFFSET 5.250500 16.397697 3.089900
					CHANNELS 3 Xrotation Yrotation Zrotation
					JOINT LHoodieString1
					{
						OFFSET 0.257700 -6.364304 3.694600
						CHANNELS 3 Xrotation Yrotation Zrotation
						JOINT LHoodieString2
						{
							OFFSET 0.000000 -9.643799 2.679100
							CHANNELS 3 Xrotation Yrotation Zrotation
							End Site
							{
								OFFSET 0.000000 10.009018 0.000000
							}
						}
					}
				}
				JOINT RHoodieString
				{
					OFFSET -5.250500 16.397697 3.089900
					CHANNELS 3 Xrotation Yrotation Zrotation
					JOINT RHoodieString1
					{
						OFFSET -0.257700 -6.364304 3.694600
						CHANNELS 3 Xrotation Yrotation Zrotation
						JOINT RHoodieString2
						{
							OFFSET 0.000000 -9.643799 2.679100
							CHANNELS 3 Xrotation Yrotation Zrotation
							End Site
							{
								OFFSET 0.000000 10.009018 0.000000
							}
						}
					}
				}
			}
			JOINT LBackpack_Strap
			{
				OFFSET 15.223200 -7.719803 -6.610900
				CHANNELS 3 Xrotation Yrotation Zrotation
				End Site
				{
					OFFSET 0.000000 16.040596 0.000000
				}
			}
			JOINT RBackpack_Strap
			{
				OFFSET -15.223000 -7.719803 -6.610900
				CHANNELS 3 Xrotation Yrotation Zrotation
				End Site
				{
					OFFSET 0.000000 16.040596 0.000000
				}
			}
		}
	}
	JOINT BoyFacialAnim_Joint
	{
		OFFSET 1.000000 -82.208099 -1.550900
		CHANNELS 3 Xrotation Yrotation Zrotation
		End Site
		{
			OFFSET 0.000000 30.012791 0.000000
		}
	}
}
MOTION
Frames: 4
Frame Time: 0.033333
-0.190800 80.158409 0.328174 -4.070066 -41.362468 0.509172 -0.000000 0.000001 -0.000000 -23.906309 39.745615 18.890027 24.742388 6.709919 -0.552489 -1.709642 0.962993 -2.817718 0.000000 -0.000001 -0.000000 0.000000 -0.000001 0.000000 0.000000 0.000000 0.000000 -2.664197 4.792789 -12.232460 24.946293 0.673991 0.963209 -16.181814 -18.311121 8.775308 -0.000000 -0.000002 0.000000 -0.000000 -0.000002 0.000000 -0.000000 0.000003 -0.000000 2.924791 -0.162152 -0.479261 5.848339 -0.390387 -0.876004 5.848344 -0.390400 -0.876004 -0.883997 26.118215 -5.085116 -12.133235 13.409295 0.401836 -0.000000 0.000000 0.000000 -0.000000 0.000000 0.000000 -0.000000 0.000000 0.000000 -18.935193 7.366273 -4.623251 -4.189722 -19.755605 -74.317335 -22.453082 -68.272590 -27.042408 -100.597963 -26.404454 17.629804 3.592077 4.185668 -5.133828 1.252891 4.302586 1.889372 -0.000001 -0.000006 0.000001 7.554899 5.560408 -33.410376 -14.917828 -6.767399 -80.641919 -0.000001 0.000001 -0.000003 -0.349205 -1.566793 -62.979235 -6.177644 -6.585461 -60.286166 0.000002 -0.000001 -0.000000 -5.286440 4.624258 -73.484708 0.757947 -3.521247 -58.282851 -0.000002 0.000001 -0.000002 -16.248807 1.424906 -86.150583 2.608796 -7.578001 -55.784713 -0.000001 0.000000 0.000002 -0.000000 0.000000 -0.000001 14.829375 0.116001 -0.444133 3.392397 38.346762 41.241638 -3.479746 115.438038 -0.032987 -33.753060 -20.046684 5.024238 15.407447 -4.518729 17.010994 11.550392 4.015405 -20.411433 0.000002 0.000000 -0.000000 1.857047 -0.976109 4.781774 -1.775901 -0.095294 22.317042 -0.000000 -0.000000 -0.000002 3.631175 5.779697 48.858802 -9.397608 -0.919672 110.759782 0.000001 -0.000001 0.000001 -8.676844 -5.659694 54.892277 -4.714172 8.864030 96.803773 0.000002 -0.000002 0.000005 -12.562969 0.077603 69.885287 -3.484592 14.093090 79.770544 -0.000003 0.000002 -0.000003 0.000000 -0.000000 -0.000000 0.000000 0.000002 -0.000001 0.000000 0.000002 -0.000001 0.000000 0.000002 -0.000001 0.000000 0.000002 -0.000001 0.000000 0.000002 -0.000000 -0.000000 0.000001 -0.000000 0.000000 0.000002 -0.000001 0.000000 0.000002 -0.000000 -0.000000 0.000001 -0.000000 0.000000 -0.000001 0.000000 0.000000 -0.000001 0.000000 -0.000000 0.000001 -0.000000 
-0.159730 80.148209 0.412607 -4.196647 -41.849307 0.355228 0.000000 -0.000003 -0.000000 -23.719557 39.486140 18.877456 24.976596 6.829365 -0.554700 -1.928279 1.561861 -2.982056 0.000000 0.000000 -0.000000 0.000000 0.000000 -0.000000 0.000000 -0.000000 -0.000000 -2.575193 5.259579 -12.212713 24.907661 0.847660 0.971899 -16.143895 -18.449797 8.789169 -0.000000 -0.000002 -0.000000 -0.000000 -0.000002 -0.000000 0.000000 -0.000001 0.000002 2.925792 -0.122751 -0.486649 5.850551 -0.311532 -0.894857 5.850555 -0.311520 -0.894858 -0.913655 25.833807 -4.842108 -12.051257 13.736141 0.520761 -0.000000 -0.000000 0.000000 -0.000000 -0.000000 0.000000 -0.000000 -0.000000 0.000000 -18.569660 7.420235 -5.021032 -5.120332 -20.810087 -74.915646 -19.429305 -66.333158 -23.179343 -103.539992 -25.887013 14.467167 3.592077 4.185670 -5.133826 1.252889 4.302583 1.889369 -0.000001 -0.000005 -0.000002 7.554896 5.560408 -33.410372 -14.917828 -6.767401 -80.641919 0.000002 0.000001 -0.000002 -0.349203 -1.566791 -62.979228 -6.177647 -6.585460 -60.286166 -0.000000 -0.000000 -0.000001 -5.286442 4.624253 -73.484708 0.757945 -3.521248 -58.282851 -0.000000 0.000002 -0.000002 -16.248807 1.424905 -86.150590 2.608795 -7.578002 -55.784716 -0.000001 0.000001 0.000000 -0.000000 0.000001 0.000000 14.830714 0.158163 -0.586220 3.499806 38.699316 40.739271 -4.013978 115.282337 0.079255 -32.348527 -20.888286 4.987038 15.407447 -4.518724 17.010993 11.550398 4.015406 -20.411426 -0.000002 -0.000002 0.000000 1.857052 -0.976109 4.781780 -1.775902 -0.095298 22.317044 0.000000 0.000000 0.000004 3.631174 5.779694 48.858799 -9.397607 -0.919669 110.759782 -0.000001 -0.000002 0.000003 -8.676843 -5.659691 54.892277 -4.714169 8.864027 96.803773 -0.000002 -0.000001 0.000002 -12.562967 0.077603 69.885287 -3.484593 14.093091 79.770544 -0.000000 -0.000000 0.000000 -0.000000 -0.000000 -0.000000 -0.000000 -0.000001 -0.000000 -0.000000 -0.000001 -0.000000 -0.000000 -0.000001 -0.000000 -0.000000 -0.000001 -0.000000 -0.000000 -0.000001 -0.000000 -0.000001 0.000000 -0.000000 -0.000000 -0.000001 -0.000000 -0.000000 -0.000001 -0.000000 -0.000001 0.000000 -0.000000 -0.000000 0.000003 -0.000000 -0.000000 0.000003 -0.000000 0.000000 -0.000003 -0.000000 
-0.098412 80.104622 0.588651 -4.403450 -42.440709 0.140826 -0.000000 0.000001 0.000000 -23.338131 38.707666 18.635263 25.521212 6.941569 -0.568812 -2.372854 2.811218 -3.243550 -0.000000 0.000001 -0.000000 -0.000000 0.000001 0.000000 -0.000000 -0.000001 0.000000 -2.474660 5.628810 -12.317676 24.955443 1.026031 0.984367 -16.155621 -18.364625 8.908019 0.000000 -0.000002 0.000000 0.000000 -0.000002 0.000000 0.000000 -0.000002 0.000000 2.946019 -0.071492 -0.490869 5.891319 -0.208964 -0.908126 5.891322 -0.208968 -0.908126 -1.012566 25.552347 -4.600672 -12.008539 14.125938 0.601388 -0.000000 -0.000000 -0.000000 -0.000000 -0.000000 -0.000000 -0.000000 -0.000000 -0.000000 -18.205227 7.512572 -5.375572 -6.034949 -21.987719 -75.619866 -17.082593 -64.211968 -20.014645 -106.623918 -25.454764 11.242049 3.592077 4.185670 -5.133828 1.252892 4.302587 1.889371 0.000000 -0.000003 -0.000003 7.554900 5.560411 -33.410376 -14.917828 -6.767398 -80.641913 -0.000003 0.000003 -0.000005 -0.349205 -1.566794 -62.979235 -6.177641 -6.585459 -60.286166 0.000001 -0.000002 -0.000000 -5.286440 4.624257 -73.484708 0.757942 -3.521247 -58.282858 -0.000003 -0.000000 -0.000000 -16.248813 1.424902 -86.150590 2.608795 -7.577998 -55.784716 0.000000 -0.000001 -0.000002 -0.000000 -0.000001 0.000001 14.828558 0.199544 -0.798321 3.681614 38.984329 40.026271 -4.511464 115.192602 0.113370 -31.046106 -21.883050 5.116522 15.407447 -4.518727 17.010998 11.550395 4.015409 -20.411428 -0.000000 0.000001 -0.000001 1.857051 -0.976107 4.781779 -1.775902 -0.095298 22.317045 -0.000003 -0.000001 -0.000000 3.631174 5.779698 48.858805 -9.397603 -0.919671 110.759782 0.000001 0.000001 -0.000000 -8.676843 -5.659690 54.892274 -4.714174 8.864027 96.803766 -0.000000 0.000001 0.000002 -12.562971 0.077601 69.885287 -3.484591 14.093087 79.770544 -0.000002 -0.000000 -0.000003 -0.000000 -0.000000 -0.000001 0.000000 -0.000003 0.000000 0.000000 -0.000003 0.000000 0.000000 -0.000003 0.000000 0.000000 -0.000003 0.000000 0.000000 -0.000003 0.000001 0.000000 -0.000001 0.000000 0.000000 -0.000003 0.000000 0.000000 -0.000003 0.000001 0.000000 -0.000001 0.000000 0.000000 0.000002 -0.000000 0.000000 0.000002 -0.000000 -0.000000 0.000001 0.000000 
0.024601 80.003960 0.908505 -4.628411 -43.019964 -0.035926 0.000000 0.000002 0.000000 -22.632086 36.926892 17.807242 26.498648 7.063797 -0.597978 -3.120565 5.135517 -3.616228 -0.000000 0.000001 -0.000000 -0.000000 0.000001 -0.000000 0.000000 0.000000 0.000000 -2.441500 5.682562 -12.700045 25.181699 1.218378 1.004928 -16.274580 -17.937982 9.202031 0.000000 0.000000 0.000000 0.000000 0.000000 0.000000 0.000000 -0.000002 0.000000 2.987520 -0.024298 -0.489190 5.974627 -0.114794 -0.905538 5.974629 -0.114791 -0.905541 -1.226805 25.273423 -4.389819 -12.001265 14.580453 0.577542 -0.000000 0.000000 -0.000000 -0.000000 0.000000 -0.000000 -0.000000 0.000000 -0.000000 -17.832372 7.627524 -5.759373 -6.987602 -23.267593 -76.397647 -15.327757 -62.007558 -17.467603 -109.816342 -25.054358 7.919128 3.592075 4.185671 -5.133827 1.252891 4.302585 1.889374 -0.000001 0.000003 -0.000000 7.554895 5.560409 -33.410376 -14.917830 -6.767397 -80.641919 -0.000003 0.000000 -0.000005 -0.349204 -1.566793 -62.979228 -6.177645 -6.585459 -60.286166 -0.000000 0.000000 0.000002 -5.286439 4.624260 -73.484701 0.757946 -3.521247 -58.282851 0.000003 0.000001 -0.000004 -16.248810 1.424906 -86.150590 2.608799 -7.577998 -55.784713 0.000001 0.000001 -0.000004 -0.000000 0.000001 0.000002 14.824268 0.194938 -1.142254 3.934369 39.210111 39.149623 -5.040285 115.189870 0.149210 -29.769694 -22.878151 5.377677 15.407450 -4.518728 17.010998 11.550393 4.015416 -20.411428 0.000001 -0.000002 0.000002 1.857051 -0.976111 4.781777 -1.775901 -0.095297 22.317042 0.000000 -0.000001 -0.000000 3.631175 5.779693 48.858802 -9.397608 -0.919669 110.759782 0.000000 0.000001 0.000003 -8.676843 -5.659694 54.892274 -4.714171 8.864029 96.803773 0.000003 0.000006 0.000005 -12.562966 0.077600 69.885287 -3.484591 14.093089 79.770544 0.000001 0.000001 -0.000001 0.000004 -0.000000 0.000000 0.000001 0.000000 -0.000000 0.000001 0.000000 -0.000000 0.000001 0.000000 -0.000000 0.000001 0.000000 -0.000000 0.000001 0.000000 0.000000 0.000000 0.000002 -0.000000 0.000001 0.000000 -0.000000 0.000001 0.000000 0.000000 0.000000 0.000002 -0.000000 -0.000000 -0.000003 0.000000 -0.000000 -0.000003 0.000000 0.000000 0.000002 0.000000 
